<?xml version="1.0" encoding="utf-8"?>
<!-- Generator: Adobe Illustrator 27.0.1, SVG Export Plug-In . SVG Version: 6.00 Build 0)  -->
<svg version="1.1" id="Layer_1" xmlns="http://www.w3.org/2000/svg" xmlns:xlink="http://www.w3.org/1999/xlink" x="0px" y="0px"
	 viewBox="0 0 800 267.3" style="enable-background:new 0 0 800 267.3;" xml:space="preserve">
<g id="nedora_00000026861998288412614600000013995830587915834758_">
	<path d="M432.3,150.9c0-34.3,27.2-60.7,61-60.7c33.8,0,61,26.5,61,60.7c0,34.3-27.2,60.7-61,60.7
		C459.5,211.6,432.3,185.2,432.3,150.9z M519.7,150.9c0-16.3-11.5-27.1-26.5-27.1c-15,0-26.5,10.8-26.5,27.1
		c0,16.3,11.5,27.2,26.5,27.2C508.2,178,519.7,167.2,519.7,150.9z M28.3,90.1v118.3h34.5v-83.7h25.4c8.8,0,16,7.1,16,16v67.8h34.5
		v-74.9c0-23.9-19.4-43.3-43.3-43.3H28.3z M642.8,90.1h-25.7c-23.9,0-43.3,19.4-43.3,43.3v74.9h34.5v-67.8c0-8.8,7.1-16,16-16h18.5
		V90.1z M737.2,91.8V96c-8-3.8-17-5.8-26.5-5.8c-33.8,0-61,26.5-61,60.7c0,34.3,27.2,60.7,61,60.7c9.5,0,18.5-2.1,26.5-5.8v4.2h34.5
		V91.8H737.2z M710.7,178c-15,0-26.5-10.8-26.5-27.2c0-16.3,11.5-27.1,26.5-27.1c14.9,0,26.5,10.8,26.5,27.1
		C737.2,167.2,725.7,178,710.7,178z M376.4,55.7V96c-8-3.8-17-5.8-26.5-5.8c-33.8,0-61,26.5-61,60.7c0,34.3,27.2,60.7,61,60.7
		c9.5,0,18.5-2.1,26.5-5.8v4.2h34.5V55.7H376.4z M350,178c-15,0-26.5-10.8-26.5-27.2c0-16.3,11.5-27.1,26.5-27.1
		c14.9,0,26.5,10.8,26.5,27.1C376.4,167.2,364.9,178,350,178z M243,172.1c-4.6,5.1-12.7,8.7-22.1,8.7c-12.7,0-23.2-4.1-27.6-16.1
		H275c0.9-4.4,1.4-9,1.4-13.8c0-34.7-24.9-60.7-58.4-60.7c-36.4,0-61.2,26.5-61.2,60.7c0,34.3,24.4,60.7,63.7,60.7
		c18.2,0,32.9-5.6,43.9-16.5L243,172.1z M217.7,120.8c10.4,0,20.7,4.8,24.4,18.2h-49.5C195.8,127.2,204.6,120.8,217.7,120.8z"/>
</g>
</svg>
